<?xml version="1.0" encoding="UTF-8"?>
<svg xmlns="http://www.w3.org/2000/svg" width="500" height="726" viewBox="0 0 500 726">
<rect x="3" y="3" width="494" height="720" rx="32" ry="32" fill="#ffffff" stroke="#c9d0d8" stroke-width="3"/>
<text x="52" y="94" font-family="'DejaVu Sans','Helvetica Neue',Helvetica,Arial,sans-serif" font-size="86" font-weight="700" fill="#12161a" text-anchor="middle">B</text><g transform="translate(29 117) scale(0.460000)" fill="#12161a"><circle cx="50" cy="26" r="21"/><circle cx="24" cy="62" r="21"/><circle cx="76" cy="62" r="21"/><path d="M43 60 C 43 80, 37 92, 27 98 L 73 98 C 63 92, 57 80, 57 60 Z"/></g>
<g transform="rotate(180 250.0 363.0)"><text x="52" y="94" font-family="'DejaVu Sans','Helvetica Neue',Helvetica,Arial,sans-serif" font-size="86" font-weight="700" fill="#12161a" text-anchor="middle">B</text><g transform="translate(29 117) scale(0.460000)" fill="#12161a"><circle cx="50" cy="26" r="21"/><circle cx="24" cy="62" r="21"/><circle cx="76" cy="62" r="21"/><path d="M43 60 C 43 80, 37 92, 27 98 L 73 98 C 63 92, 57 80, 57 60 Z"/></g></g>
<rect x="88" y="130" width="324" height="466" rx="20" ry="20" fill="#12161a" fill-opacity="0.09"/><rect x="88" y="130" width="324" height="466" rx="20" ry="20" fill="none" stroke="#12161a" stroke-width="4"/><g transform="translate(214 156) scale(0.720000)" fill="#12161a"><circle cx="50" cy="26" r="21"/><circle cx="24" cy="62" r="21"/><circle cx="76" cy="62" r="21"/><path d="M43 60 C 43 80, 37 92, 27 98 L 73 98 C 63 92, 57 80, 57 60 Z"/></g><g transform="rotate(180 250 534) translate(214 498) scale(0.720000)" fill="#12161a"><circle cx="50" cy="26" r="21"/><circle cx="24" cy="62" r="21"/><circle cx="76" cy="62" r="21"/><path d="M43 60 C 43 80, 37 92, 27 98 L 73 98 C 63 92, 57 80, 57 60 Z"/></g><text x="250.0" y="441.0" font-family="'DejaVu Sans','Helvetica Neue',Helvetica,Arial,sans-serif" font-size="215" font-weight="700" fill="#12161a" text-anchor="middle">B</text>
</svg>